<mxfile host="app.diagrams.net" modified="2023-04-02T09:15:52.311Z" agent="Mozilla/5.0 (Windows NT 10.0; Win64; x64) AppleWebKit/537.36 (KHTML, like Gecko) Chrome/89.0.4389.128 Safari/537.36" etag="2VXf2oCsg-DBQn5HUG9r" version="21.1.2" type="github">
  <diagram name="Сторінка-1" id="TdrTmNIwiGjnx47I0RfR">
    <mxGraphModel dx="1050" dy="587" grid="1" gridSize="10" guides="1" tooltips="1" connect="1" arrows="1" fold="1" page="1" pageScale="1" pageWidth="827" pageHeight="1169" math="0" shadow="0">
      <root>
        <mxCell id="0" />
        <mxCell id="1" parent="0" />
        <mxCell id="kQ61tyJdOc__lNQOEXDA-5" value="AddressBook" style="swimlane;fontStyle=1;align=center;verticalAlign=top;childLayout=stackLayout;horizontal=1;startSize=26;horizontalStack=0;resizeParent=1;resizeParentMax=0;resizeLast=0;collapsible=1;marginBottom=0;whiteSpace=wrap;html=1;" vertex="1" parent="1">
          <mxGeometry x="210" y="1090" width="160" height="310" as="geometry">
            <mxRectangle x="590" y="10" width="120" height="30" as="alternateBounds" />
          </mxGeometry>
        </mxCell>
        <mxCell id="kQ61tyJdOc__lNQOEXDA-6" value="+counter&lt;br&gt;+data" style="text;strokeColor=none;fillColor=none;align=left;verticalAlign=top;spacingLeft=4;spacingRight=4;overflow=hidden;rotatable=0;points=[[0,0.5],[1,0.5]];portConstraint=eastwest;whiteSpace=wrap;html=1;" vertex="1" parent="kQ61tyJdOc__lNQOEXDA-5">
          <mxGeometry y="26" width="160" height="44" as="geometry" />
        </mxCell>
        <mxCell id="kQ61tyJdOc__lNQOEXDA-7" value="" style="line;strokeWidth=1;fillColor=none;align=left;verticalAlign=middle;spacingTop=-1;spacingLeft=3;spacingRight=3;rotatable=0;labelPosition=right;points=[];portConstraint=eastwest;strokeColor=inherit;" vertex="1" parent="kQ61tyJdOc__lNQOEXDA-5">
          <mxGeometry y="70" width="160" height="8" as="geometry" />
        </mxCell>
        <mxCell id="kQ61tyJdOc__lNQOEXDA-8" value="__get_current_week&lt;br&gt;__getitem__&lt;br&gt;__init__&lt;br&gt;__iter__&lt;br&gt;__next__&lt;br&gt;__setitem__&lt;br&gt;__str__&lt;br&gt;+add&lt;br&gt;+congratulate&lt;br&gt;+edit&lt;br&gt;+load&lt;br&gt;+log&lt;br&gt;+remove&lt;br&gt;+save&lt;br&gt;+search" style="text;strokeColor=none;fillColor=none;align=left;verticalAlign=top;spacingLeft=4;spacingRight=4;overflow=hidden;rotatable=0;points=[[0,0.5],[1,0.5]];portConstraint=eastwest;whiteSpace=wrap;html=1;" vertex="1" parent="kQ61tyJdOc__lNQOEXDA-5">
          <mxGeometry y="78" width="160" height="232" as="geometry" />
        </mxCell>
        <mxCell id="kQ61tyJdOc__lNQOEXDA-10" value="&lt;p style=&quot;margin:0px;margin-top:4px;text-align:center;&quot;&gt;&lt;b&gt;Bot&lt;/b&gt;&lt;/p&gt;&lt;hr size=&quot;1&quot;&gt;&lt;p style=&quot;margin:0px;margin-left:4px;&quot;&gt;+book&lt;/p&gt;&lt;hr size=&quot;1&quot;&gt;&lt;p style=&quot;margin:0px;margin-left:4px;&quot;&gt;__init__&lt;/p&gt;&lt;p style=&quot;margin:0px;margin-left:4px;&quot;&gt;+handle&lt;/p&gt;" style="verticalAlign=top;align=left;overflow=fill;fontSize=12;fontFamily=Helvetica;html=1;whiteSpace=wrap;" vertex="1" parent="1">
          <mxGeometry x="480" y="1242" width="160" height="90" as="geometry" />
        </mxCell>
        <mxCell id="kQ61tyJdOc__lNQOEXDA-11" value="pickle.load" style="html=1;whiteSpace=wrap;fontStyle=1" vertex="1" parent="1">
          <mxGeometry x="30" y="1230" width="110" height="30" as="geometry" />
        </mxCell>
        <mxCell id="kQ61tyJdOc__lNQOEXDA-14" value="&lt;p style=&quot;margin:0px;margin-top:4px;text-align:center;&quot;&gt;&lt;b&gt;Record&lt;/b&gt;&lt;/p&gt;&lt;hr size=&quot;1&quot;&gt;&lt;p style=&quot;margin:0px;margin-left:4px;&quot;&gt;+birthday&lt;/p&gt;&lt;p style=&quot;margin:0px;margin-left:4px;&quot;&gt;+name&lt;/p&gt;&lt;p style=&quot;margin:0px;margin-left:4px;&quot;&gt;+phones&lt;/p&gt;&lt;p style=&quot;margin:0px;margin-left:4px;&quot;&gt;+email&lt;/p&gt;&lt;p style=&quot;margin:0px;margin-left:4px;&quot;&gt;+status&lt;/p&gt;&lt;p style=&quot;margin:0px;margin-left:4px;&quot;&gt;+note&lt;/p&gt;&lt;hr size=&quot;1&quot;&gt;&lt;p style=&quot;margin:0px;margin-left:4px;&quot;&gt;__init__&lt;/p&gt;&lt;p style=&quot;margin:0px;margin-left:4px;&quot;&gt;+days_to_birthday&lt;/p&gt;" style="verticalAlign=top;align=left;overflow=fill;fontSize=12;fontFamily=Helvetica;html=1;whiteSpace=wrap;" vertex="1" parent="1">
          <mxGeometry x="480" y="990" width="160" height="220" as="geometry" />
        </mxCell>
        <mxCell id="kQ61tyJdOc__lNQOEXDA-15" value="&lt;p style=&quot;margin:0px;margin-top:4px;text-align:center;&quot;&gt;&lt;b&gt;Field&lt;/b&gt;&lt;/p&gt;&lt;hr size=&quot;1&quot;&gt;&lt;div style=&quot;height:2px;&quot;&gt;__getitem__&lt;/div&gt;" style="verticalAlign=top;align=left;overflow=fill;fontSize=12;fontFamily=Helvetica;html=1;whiteSpace=wrap;" vertex="1" parent="1">
          <mxGeometry x="340" y="610" width="140" height="70" as="geometry" />
        </mxCell>
        <mxCell id="kQ61tyJdOc__lNQOEXDA-16" value="&lt;p style=&quot;margin:0px;margin-top:4px;text-align:center;&quot;&gt;&lt;b&gt;Note&lt;/b&gt;&lt;/p&gt;&lt;hr size=&quot;1&quot;&gt;&lt;p style=&quot;margin:0px;margin-left:4px;&quot;&gt;+value&lt;/p&gt;&lt;hr size=&quot;1&quot;&gt;&lt;p style=&quot;margin:0px;margin-left:4px;&quot;&gt;__init__&lt;/p&gt;&lt;p style=&quot;margin:0px;margin-left:4px;&quot;&gt;__getitem__&lt;/p&gt;" style="verticalAlign=top;align=left;overflow=fill;fontSize=12;fontFamily=Helvetica;html=1;whiteSpace=wrap;" vertex="1" parent="1">
          <mxGeometry x="430" y="760" width="110" height="90" as="geometry" />
        </mxCell>
        <mxCell id="kQ61tyJdOc__lNQOEXDA-17" value="&lt;p style=&quot;margin:0px;margin-top:4px;text-align:center;&quot;&gt;&lt;b&gt;Phone&lt;/b&gt;&lt;/p&gt;&lt;hr size=&quot;1&quot;&gt;&lt;p style=&quot;margin:0px;margin-left:4px;&quot;&gt;+value&lt;/p&gt;&lt;p style=&quot;margin:0px;margin-left:4px;&quot;&gt;+values&lt;/p&gt;&lt;hr size=&quot;1&quot;&gt;&lt;p style=&quot;margin:0px;margin-left:4px;&quot;&gt;__init__&lt;/p&gt;&lt;p style=&quot;margin:0px;margin-left:4px;&quot;&gt;__getitem__&lt;/p&gt;" style="verticalAlign=top;align=left;overflow=fill;fontSize=12;fontFamily=Helvetica;html=1;whiteSpace=wrap;" vertex="1" parent="1">
          <mxGeometry x="150" y="760" width="110" height="110" as="geometry" />
        </mxCell>
        <mxCell id="kQ61tyJdOc__lNQOEXDA-19" value="&lt;p style=&quot;margin:0px;margin-top:4px;text-align:center;&quot;&gt;&lt;b&gt;Birthday&lt;/b&gt;&lt;/p&gt;&lt;hr size=&quot;1&quot;&gt;&lt;p style=&quot;margin:0px;margin-left:4px;&quot;&gt;+value&lt;/p&gt;&lt;hr size=&quot;1&quot;&gt;&lt;p style=&quot;margin:0px;margin-left:4px;&quot;&gt;__init__&lt;/p&gt;&lt;p style=&quot;margin:0px;margin-left:4px;&quot;&gt;__getitem__&lt;/p&gt;" style="verticalAlign=top;align=left;overflow=fill;fontSize=12;fontFamily=Helvetica;html=1;whiteSpace=wrap;" vertex="1" parent="1">
          <mxGeometry x="710" y="760" width="110" height="90" as="geometry" />
        </mxCell>
        <mxCell id="kQ61tyJdOc__lNQOEXDA-20" value="&lt;p style=&quot;margin:0px;margin-top:4px;text-align:center;&quot;&gt;&lt;b&gt;Email&lt;/b&gt;&lt;/p&gt;&lt;hr size=&quot;1&quot;&gt;&lt;p style=&quot;margin:0px;margin-left:4px;&quot;&gt;+value&lt;/p&gt;&lt;hr size=&quot;1&quot;&gt;&lt;p style=&quot;margin:0px;margin-left:4px;&quot;&gt;__init__&lt;/p&gt;&lt;p style=&quot;margin:0px;margin-left:4px;&quot;&gt;__getitem__&lt;/p&gt;" style="verticalAlign=top;align=left;overflow=fill;fontSize=12;fontFamily=Helvetica;html=1;whiteSpace=wrap;" vertex="1" parent="1">
          <mxGeometry x="570" y="760" width="110" height="90" as="geometry" />
        </mxCell>
        <mxCell id="kQ61tyJdOc__lNQOEXDA-21" value="&lt;p style=&quot;margin:0px;margin-top:4px;text-align:center;&quot;&gt;&lt;b&gt;Status&lt;/b&gt;&lt;/p&gt;&lt;hr size=&quot;1&quot;&gt;&lt;p style=&quot;margin:0px;margin-left:4px;&quot;&gt;+value&lt;/p&gt;&lt;p style=&quot;margin:0px;margin-left:4px;&quot;&gt;+status_types&lt;/p&gt;&lt;hr size=&quot;1&quot;&gt;&lt;p style=&quot;margin:0px;margin-left:4px;&quot;&gt;__init__&lt;/p&gt;&lt;p style=&quot;margin:0px;margin-left:4px;&quot;&gt;__getitem__&lt;/p&gt;" style="verticalAlign=top;align=left;overflow=fill;fontSize=12;fontFamily=Helvetica;html=1;whiteSpace=wrap;" vertex="1" parent="1">
          <mxGeometry x="290" y="760" width="110" height="110" as="geometry" />
        </mxCell>
        <mxCell id="kQ61tyJdOc__lNQOEXDA-22" value="&lt;p style=&quot;margin:0px;margin-top:4px;text-align:center;&quot;&gt;&lt;b&gt;Name&lt;/b&gt;&lt;/p&gt;&lt;hr size=&quot;1&quot;&gt;&lt;p style=&quot;margin:0px;margin-left:4px;&quot;&gt;+value&lt;/p&gt;&lt;hr size=&quot;1&quot;&gt;&lt;p style=&quot;margin:0px;margin-left:4px;&quot;&gt;__init__&lt;/p&gt;&lt;p style=&quot;margin:0px;margin-left:4px;&quot;&gt;__getitem__&lt;/p&gt;" style="verticalAlign=top;align=left;overflow=fill;fontSize=12;fontFamily=Helvetica;html=1;whiteSpace=wrap;" vertex="1" parent="1">
          <mxGeometry x="10" y="760" width="110" height="90" as="geometry" />
        </mxCell>
        <mxCell id="kQ61tyJdOc__lNQOEXDA-23" value="UserList" style="html=1;whiteSpace=wrap;fontStyle=1" vertex="1" parent="1">
          <mxGeometry x="235" y="980" width="110" height="50" as="geometry" />
        </mxCell>
        <mxCell id="kQ61tyJdOc__lNQOEXDA-24" value="ABC" style="html=1;whiteSpace=wrap;fontStyle=1;" vertex="1" parent="1">
          <mxGeometry x="355" y="520" width="110" height="50" as="geometry" />
        </mxCell>
        <mxCell id="kQ61tyJdOc__lNQOEXDA-28" value="" style="endArrow=block;endFill=0;endSize=12;html=1;rounded=0;entryX=0.5;entryY=1;entryDx=0;entryDy=0;exitX=0.5;exitY=0;exitDx=0;exitDy=0;" edge="1" parent="1" source="kQ61tyJdOc__lNQOEXDA-5" target="kQ61tyJdOc__lNQOEXDA-23">
          <mxGeometry width="160" relative="1" as="geometry">
            <mxPoint x="200" y="780" as="sourcePoint" />
            <mxPoint x="360" y="780" as="targetPoint" />
          </mxGeometry>
        </mxCell>
        <mxCell id="kQ61tyJdOc__lNQOEXDA-30" value="" style="endArrow=block;endFill=0;endSize=12;html=1;rounded=0;entryX=0.5;entryY=1;entryDx=0;entryDy=0;exitX=0.5;exitY=0;exitDx=0;exitDy=0;" edge="1" parent="1" source="kQ61tyJdOc__lNQOEXDA-15" target="kQ61tyJdOc__lNQOEXDA-24">
          <mxGeometry width="160" relative="1" as="geometry">
            <mxPoint x="245" y="680" as="sourcePoint" />
            <mxPoint x="245" y="580" as="targetPoint" />
          </mxGeometry>
        </mxCell>
        <mxCell id="kQ61tyJdOc__lNQOEXDA-34" value="" style="endArrow=block;endFill=0;endSize=12;html=1;rounded=0;exitX=0.5;exitY=0;exitDx=0;exitDy=0;" edge="1" parent="1" source="kQ61tyJdOc__lNQOEXDA-21">
          <mxGeometry width="160" relative="1" as="geometry">
            <mxPoint x="275" y="710" as="sourcePoint" />
            <mxPoint x="410" y="680" as="targetPoint" />
            <Array as="points">
              <mxPoint x="345" y="720" />
              <mxPoint x="410" y="720" />
            </Array>
          </mxGeometry>
        </mxCell>
        <mxCell id="kQ61tyJdOc__lNQOEXDA-35" value="" style="endArrow=block;endFill=0;endSize=12;html=1;rounded=0;entryX=0.5;entryY=1;entryDx=0;entryDy=0;exitX=0.5;exitY=0;exitDx=0;exitDy=0;" edge="1" parent="1" source="kQ61tyJdOc__lNQOEXDA-16" target="kQ61tyJdOc__lNQOEXDA-15">
          <mxGeometry width="160" relative="1" as="geometry">
            <mxPoint x="285" y="720" as="sourcePoint" />
            <mxPoint x="285" y="620" as="targetPoint" />
            <Array as="points">
              <mxPoint x="485" y="720" />
              <mxPoint x="410" y="720" />
            </Array>
          </mxGeometry>
        </mxCell>
        <mxCell id="kQ61tyJdOc__lNQOEXDA-39" value="" style="endArrow=block;endFill=0;endSize=12;html=1;rounded=0;exitX=0.5;exitY=0;exitDx=0;exitDy=0;" edge="1" parent="1" source="kQ61tyJdOc__lNQOEXDA-17">
          <mxGeometry width="160" relative="1" as="geometry">
            <mxPoint x="315" y="750" as="sourcePoint" />
            <mxPoint x="410" y="680" as="targetPoint" />
            <Array as="points">
              <mxPoint x="205" y="720" />
              <mxPoint x="410" y="720" />
            </Array>
          </mxGeometry>
        </mxCell>
        <mxCell id="kQ61tyJdOc__lNQOEXDA-40" value="" style="endArrow=none;html=1;rounded=0;" edge="1" parent="1">
          <mxGeometry width="50" height="50" relative="1" as="geometry">
            <mxPoint x="620" y="760" as="sourcePoint" />
            <mxPoint x="440" y="720" as="targetPoint" />
            <Array as="points">
              <mxPoint x="620" y="720" />
            </Array>
          </mxGeometry>
        </mxCell>
        <mxCell id="kQ61tyJdOc__lNQOEXDA-41" value="" style="endArrow=none;html=1;rounded=0;" edge="1" parent="1">
          <mxGeometry width="50" height="50" relative="1" as="geometry">
            <mxPoint x="60" y="760" as="sourcePoint" />
            <mxPoint x="220" y="720" as="targetPoint" />
            <Array as="points">
              <mxPoint x="60" y="720" />
            </Array>
          </mxGeometry>
        </mxCell>
        <mxCell id="kQ61tyJdOc__lNQOEXDA-42" value="" style="endArrow=none;html=1;rounded=0;exitX=0.5;exitY=0;exitDx=0;exitDy=0;" edge="1" parent="1" source="kQ61tyJdOc__lNQOEXDA-19">
          <mxGeometry width="50" height="50" relative="1" as="geometry">
            <mxPoint x="300" y="760" as="sourcePoint" />
            <mxPoint x="360" y="720" as="targetPoint" />
            <Array as="points">
              <mxPoint x="765" y="720" />
            </Array>
          </mxGeometry>
        </mxCell>
        <mxCell id="kQ61tyJdOc__lNQOEXDA-46" value="1" style="endArrow=open;html=1;endSize=12;startArrow=diamondThin;startSize=14;startFill=1;align=left;verticalAlign=bottom;rounded=0;entryX=-0.005;entryY=0.328;entryDx=0;entryDy=0;fontColor=none;noLabel=1;entryPerimeter=0;" edge="1" parent="1" source="kQ61tyJdOc__lNQOEXDA-11" target="kQ61tyJdOc__lNQOEXDA-8">
          <mxGeometry x="-1" y="3" relative="1" as="geometry">
            <mxPoint x="40" y="320" as="sourcePoint" />
            <mxPoint x="20" y="230" as="targetPoint" />
          </mxGeometry>
        </mxCell>
        <mxCell id="kQ61tyJdOc__lNQOEXDA-48" value="1" style="endArrow=open;html=1;endSize=12;startArrow=diamondThin;startSize=14;startFill=1;align=left;verticalAlign=bottom;rounded=0;fontColor=none;noLabel=1;entryX=-0.021;entryY=0.618;entryDx=0;entryDy=0;entryPerimeter=0;exitX=1.01;exitY=0.559;exitDx=0;exitDy=0;exitPerimeter=0;" edge="1" parent="1" source="kQ61tyJdOc__lNQOEXDA-8" target="kQ61tyJdOc__lNQOEXDA-10">
          <mxGeometry x="-1" y="3" relative="1" as="geometry">
            <mxPoint x="380" y="1280" as="sourcePoint" />
            <mxPoint x="390" y="220" as="targetPoint" />
          </mxGeometry>
        </mxCell>
        <mxCell id="kQ61tyJdOc__lNQOEXDA-50" value="" style="endArrow=diamondThin;endFill=1;endSize=24;html=1;rounded=0;entryX=0.5;entryY=0;entryDx=0;entryDy=0;" edge="1" parent="1" target="kQ61tyJdOc__lNQOEXDA-14">
          <mxGeometry width="160" relative="1" as="geometry">
            <mxPoint x="560" y="930" as="sourcePoint" />
            <mxPoint x="380" y="990" as="targetPoint" />
          </mxGeometry>
        </mxCell>
        <mxCell id="kQ61tyJdOc__lNQOEXDA-51" value="" style="endArrow=block;endFill=0;endSize=12;html=1;rounded=0;entryX=0.5;entryY=1;entryDx=0;entryDy=0;" edge="1" parent="1" target="kQ61tyJdOc__lNQOEXDA-19">
          <mxGeometry width="160" relative="1" as="geometry">
            <mxPoint x="560" y="930" as="sourcePoint" />
            <mxPoint x="790" y="930" as="targetPoint" />
            <Array as="points">
              <mxPoint x="765" y="930" />
            </Array>
          </mxGeometry>
        </mxCell>
        <mxCell id="kQ61tyJdOc__lNQOEXDA-53" value="" style="endArrow=block;endFill=0;endSize=12;html=1;rounded=0;entryX=0.5;entryY=1;entryDx=0;entryDy=0;fillColor=#ffe6cc;strokeColor=#000000;" edge="1" parent="1" target="kQ61tyJdOc__lNQOEXDA-21">
          <mxGeometry width="160" relative="1" as="geometry">
            <mxPoint x="570" y="930" as="sourcePoint" />
            <mxPoint x="775" y="860" as="targetPoint" />
            <Array as="points">
              <mxPoint x="345" y="930" />
            </Array>
          </mxGeometry>
        </mxCell>
        <mxCell id="kQ61tyJdOc__lNQOEXDA-54" value="" style="endArrow=block;endFill=0;endSize=12;html=1;rounded=0;entryX=0.5;entryY=1;entryDx=0;entryDy=0;" edge="1" parent="1" target="kQ61tyJdOc__lNQOEXDA-16">
          <mxGeometry width="160" relative="1" as="geometry">
            <mxPoint x="485" y="930" as="sourcePoint" />
            <mxPoint x="785" y="870" as="targetPoint" />
            <Array as="points" />
          </mxGeometry>
        </mxCell>
        <mxCell id="kQ61tyJdOc__lNQOEXDA-55" value="" style="endArrow=block;endFill=0;endSize=12;html=1;rounded=0;entryX=0.5;entryY=1;entryDx=0;entryDy=0;" edge="1" parent="1" target="kQ61tyJdOc__lNQOEXDA-20">
          <mxGeometry width="160" relative="1" as="geometry">
            <mxPoint x="550" y="930" as="sourcePoint" />
            <mxPoint x="795" y="880" as="targetPoint" />
            <Array as="points">
              <mxPoint x="625" y="930" />
            </Array>
          </mxGeometry>
        </mxCell>
      </root>
    </mxGraphModel>
  </diagram>
</mxfile>
